<?xml version="1.0" standalone="no"?>
<!DOCTYPE svg PUBLIC "-//W3C//DTD SVG 20010904//EN"
 "http://www.w3.org/TR/2001/REC-SVG-20010904/DTD/svg10.dtd">
<svg version="1.0" xmlns="http://www.w3.org/2000/svg"
 width="300.000000pt" height="300.000000pt" viewBox="0 0 300.000000 300.000000"
 preserveAspectRatio="xMidYMid meet">
<metadata>
Created by potrace 1.10, written by Peter Selinger 2001-2011
</metadata>
<g transform="translate(0.000000,300.000000) scale(0.100000,-0.100000)"
fill="#000000" stroke="none">
<path d="M940 1518 c0 -65 4 -108 10 -108 6 0 10 38 10 95 l0 95 200 0 c153 0
200 3 200 13 0 9 -49 12 -210 12 l-210 0 0 -107z"/>
<path d="M980 1465 l0 -115 388 2 c213 1 467 4 565 6 l177 3 0 109 0 110 -565
0 -565 0 0 -115z m703 98 l407 -6 0 -94 0 -93 -544 0 -544 0 -6 23 c-8 30 -8
162 1 170 8 9 173 9 686 0z"/>
<path d="M1010 1465 l0 -85 265 0 265 0 0 85 0 85 -265 0 -265 0 0 -85z m118
33 c3 -22 -2 -29 -22 -34 -17 -4 -26 -13 -26 -25 0 -10 -4 -19 -10 -19 -5 0
-10 25 -10 56 l0 55 33 -3 c26 -2 33 -8 35 -30z m220 -6 c-24 -5 -25 -52 -1
-52 12 0 14 -3 6 -11 -17 -17 -33 -1 -33 32 0 16 -5 29 -11 29 -8 0 -8 4 1 15
10 12 16 12 34 3 18 -11 19 -13 4 -16z m-150 1 c5 -10 8 -26 7 -35 -2 -10 2
-18 8 -18 20 0 -3 -13 -27 -16 -27 -3 -52 19 -41 36 3 5 12 10 20 10 8 0 17 5
21 12 5 8 0 9 -14 6 -21 -6 -29 2 -15 15 12 13 32 7 41 -10z m90 -31 c2 -24
-1 -41 -6 -38 -5 3 -7 19 -4 37 4 26 2 30 -14 27 -13 -2 -19 -12 -19 -30 -1
-15 -4 -30 -8 -34 -4 -4 -7 13 -7 38 0 43 1 45 28 44 25 -1 27 -5 30 -44z
m157 14 l12 -29 11 32 c6 17 16 31 21 31 13 0 -26 -102 -42 -112 -28 -18 -37
-3 -11 17 15 11 15 14 0 43 -21 41 -46 42 -46 3 0 -17 -4 -33 -10 -36 -6 -4
-10 11 -10 38 0 43 1 44 32 43 25 -1 34 -8 43 -30z"/>
<path d="M1080 1500 c0 -19 20 -27 33 -13 8 7 -11 33 -24 33 -5 0 -9 -9 -9
-20z"/>
<path d="M1580 1480 l0 -50 33 1 c30 2 30 2 5 6 -35 5 -37 33 -3 33 14 0 25 5
25 10 0 6 -11 10 -25 10 -16 0 -25 6 -25 16 0 12 6 15 25 10 14 -4 25 -2 25 4
0 5 -13 10 -30 10 -29 0 -30 -1 -30 -50z"/>
<path d="M1959 1508 c-3 -34 4 -74 14 -80 14 -8 33 2 20 11 -6 3 -12 16 -15
29 -4 16 -2 22 9 22 13 0 13 3 3 15 -15 18 -30 19 -31 3z"/>
<path d="M1650 1502 c0 -4 6 -14 12 -20 10 -10 10 -17 0 -32 -7 -11 -8 -20 -3
-20 6 0 13 5 16 10 5 7 11 8 19 1 8 -7 12 1 12 32 1 37 0 39 -12 22 -12 -16
-14 -17 -20 -2 -6 17 -24 24 -24 9z"/>
<path d="M1731 1450 c1 -30 3 -47 6 -37 3 10 10 16 16 14 21 -8 47 13 47 38 0
27 -15 40 -47 40 -21 1 -23 -3 -22 -55z m52 28 c6 -19 -3 -38 -18 -38 -18 0
-28 17 -21 35 7 18 33 20 39 3z"/>
<path d="M1833 1502 c-11 -7 -16 -25 -14 -53 1 -20 25 -31 46 -23 24 10 17 22
-10 16 -15 -2 -25 0 -25 7 0 6 11 11 25 11 29 0 36 34 9 44 -19 7 -16 7 -31
-2z"/>
<path d="M1900 1468 c0 -21 4 -38 9 -38 4 0 6 11 3 25 -3 17 1 27 12 31 22 9
20 20 -4 20 -16 0 -20 -7 -20 -38z"/>
<path d="M2014 1495 c-7 -18 3 -35 22 -35 8 0 14 -5 14 -11 0 -6 -9 -9 -20 -6
-24 6 -27 -8 -4 -17 17 -7 44 9 44 25 0 5 -12 15 -27 21 -27 11 -27 12 -5 16
12 2 20 8 17 13 -9 14 -35 11 -41 -6z"/>
<path d="M2130 1430 l0 -90 -200 0 c-172 0 -200 -2 -200 -15 0 -13 28 -15 211
-13 l211 3 1 103 c2 76 -1 102 -10 102 -10 0 -13 -25 -13 -90z"/>
</g>
</svg>
